<?xml version="1.0" encoding="UTF-8"?>
<svg width="20px" height="20px" viewBox="0 0 20 20" version="1.1" xmlns="http://www.w3.org/2000/svg" xmlns:xlink="http://www.w3.org/1999/xlink">
    <!-- Generator: Sketch 50.2 (55047) - http://www.bohemiancoding.com/sketch -->
    <title>customize table</title>
    <desc>Created with Sketch.</desc>
    <defs></defs>
    <g id="Page-1" stroke="none" stroke-width="1" fill="none" fill-rule="evenodd">
        <g id="Artboard-2" fill="#CCCCCC">
            <g id="icon/table-filter">
                <path d="M10,20 C4.4771525,20 0,15.5228475 0,10 C0,4.4771525 4.4771525,0 10,0 C15.5228475,0 20,4.4771525 20,10 C20,15.5228475 15.5228475,20 10,20 Z M10,18.3333333 C14.6023729,18.3333333 18.3333333,14.6023729 18.3333333,10 C18.3333333,5.39762709 14.6023729,1.66666667 10,1.66666667 C5.39762709,1.66666667 1.66666667,5.39762709 1.66666667,10 C1.66666667,14.6023729 5.39762709,18.3333333 10,18.3333333 Z M5,5 L7.5,5 L7.5,15 L5,15 L5,5 Z M8.75,5 L11.25,5 L11.25,15 L8.75,15 L8.75,5 Z M12.5,5 L15,5 L15,15 L12.5,15 L12.5,5 Z M13.3333333,5.83333333 L13.3333333,14.1666667 L14.1666667,14.1666667 L14.1666667,5.83333333 L13.3333333,5.83333333 Z" id="Combined-Shape"></path>
            </g>
        </g>
    </g>
</svg>