<?xml version="1.0" encoding="UTF-8"?>
<svg width="20px" height="20px" viewBox="0 0 20 20" version="1.1" xmlns="http://www.w3.org/2000/svg" xmlns:xlink="http://www.w3.org/1999/xlink">
    <!-- Generator: Sketch 50.2 (55047) - http://www.bohemiancoding.com/sketch -->
    <title>Artboard 2</title>
    <desc>Created with Sketch.</desc>
    <defs></defs>
    <g id="Artboard-2" stroke="none" stroke-width="1" fill="none" fill-rule="evenodd">
        <path d="M16.3693429,10.2000164 C16.2695379,10.0578731 16.1650974,9.91922255 16.0562412,9.78428453 C16.338552,9.07848751 16.642336,8.31415446 16.9675933,7.49128537 C18.8379488,9.30879713 20,11.8516277 20,14.6659299 C20,15.834973 19.7994859,16.9571731 19.430981,18 L17.0292987,18 C17.1342184,17.7790899 17.2290356,17.5524493 17.313153,17.3206755 L15.9087166,16.9705102 L16.150692,16 L17.5929284,16.3595899 C17.7139538,15.8143628 17.7777778,15.2476014 17.7777778,14.6659299 C17.7777778,13.3622576 17.4571766,12.1334824 16.8905325,11.0541788 L15.5447594,11.928134 L15,11.0892781 L16.3693435,10.200016 Z M10.1343061,6.88756943 C10.0896281,6.88681278 10.0448584,6.88643294 10,6.88643294 C7.31163885,6.88643294 4.94184311,8.25067508 3.54485903,10.3247685 L4.72210056,11.0892781 L4.17734114,11.928134 L3.04006669,11.1895794 C2.51671681,12.2357955 2.22222222,13.4164637 2.22222222,14.6659299 C2.22222222,15.2476014 2.2860462,15.8143628 2.40707164,16.3595899 L3.84930804,16 L4.09128341,16.9705102 L2.68684701,17.3206755 C2.7709644,17.5524493 2.86578156,17.7790899 2.97070129,18 L0.569019026,18 C0.20051407,16.9571731 0,15.834973 0,14.6659299 C0,9.14186164 4.4771525,4.66371953 10,4.66371953 C11.1670439,4.66371953 12.2873946,4.86368091 13.3286741,5.23121846 C12.7975108,5.90034989 12.3030551,6.52550963 11.8453067,7.10669769 C11.6123113,7.04999325 11.3752085,7.00378509 11.1345271,6.96860228 L11.1345271,8.55987 L10.1343061,8.55987 L10.1343061,6.88756929 Z M9.12559232,16.725686 C8.16900707,16.1734013 7.90106428,14.8466308 8.52712535,13.7622612 C8.9444994,13.0393482 11.977948,9.11859444 17.6274711,2 C14.2873491,10.4519278 12.408601,15.0393482 11.991227,15.7622612 C11.3651659,16.8466308 10.0821776,17.2779708 9.12559232,16.725686 Z" id="Combined-Shape" fill="#CCCCCC"></path>
    </g>
</svg>