<?xml version="1.0" encoding="UTF-8"?>
<svg width="20px" height="20px" viewBox="0 0 20 20" version="1.1" xmlns="http://www.w3.org/2000/svg" xmlns:xlink="http://www.w3.org/1999/xlink">
    <!-- Generator: Sketch 50.2 (55047) - http://www.bohemiancoding.com/sketch -->
    <title>excel</title>
    <desc>Created with Sketch.</desc>
    <defs></defs>
    <g id="Page-1" stroke="none" stroke-width="1" fill="none" fill-rule="evenodd">
        <g id="Artboard-2" fill="#CCCCCC">
            <g id="icon/excel">
                <path d="M0,0 L13,0 L13,7 L20,7 L20,20 L0,20 L0,0 Z M14,0 L20,6 L14,6 L14,0 Z M5.45751953,15.6071777 C5.47986895,15.5501867 5.49564194,15.4981286 5.5053734,15.4482524 C5.51676677,15.4983803 5.53442533,15.5547728 5.55834961,15.6174316 C5.58227551,15.6800947 5.61816382,15.7626948 5.66601562,15.8652344 L6.24023438,17 L8.29785156,17 L6.52050781,14.3339844 L8.08251953,11.9960938 L6.03857422,11.9960938 L5.65917969,12.8129883 C5.62044251,12.9041346 5.58911145,12.9810381 5.56518555,13.0437012 C5.54125965,13.1063642 5.52132169,13.1673174 5.50537109,13.2265625 C5.48030586,13.1354162 5.43359409,13.0123706 5.36523438,12.8574219 C5.35611975,12.836914 5.34928388,12.8221029 5.34472656,12.8129883 L4.97558594,11.9960938 L2.92138672,11.9960938 L4.49023438,14.3339844 L2.71289062,17 L4.77050781,17 L5.33789062,15.8652344 C5.39485706,15.7513015 5.43473296,15.6652835 5.45751953,15.6071777 Z" id="Combined-Shape"></path>
            </g>
        </g>
    </g>
</svg>