<?xml version="1.0" encoding="UTF-8"?>
<svg width="20px" height="20px" viewBox="0 0 20 20" version="1.1" xmlns="http://www.w3.org/2000/svg" xmlns:xlink="http://www.w3.org/1999/xlink">
    <!-- Generator: Sketch 50.2 (55047) - http://www.bohemiancoding.com/sketch -->
    <title>Artboard 2</title>
    <desc>Created with Sketch.</desc>
    <defs></defs>
    <g id="Artboard-2" stroke="none" stroke-width="1" fill="none" fill-rule="evenodd">
        <path d="M10,2 C5.584,2 2,5.584 2,10 C2,14.416 5.584,18 10,18 C14.416,18 18,14.416 18,10 C18,5.584 14.416,2 10,2 Z M9.2,16.344 C6.04,15.952 3.6,13.264 3.6,10 C3.6,9.504 3.664,9.032 3.768,8.568 L7.6,12.4 L7.6,13.2 C7.6,14.08 8.32,14.8 9.2,14.8 L9.2,16.344 Z M14.72,14.312 C14.512,13.664 13.92,13.2 13.2,13.2 L12.4,13.2 L12.4,10.8 C12.4,10.36 12.04,10 11.6,10 L6.8,10 L6.8,8.4 L8.4,8.4 C8.84,8.4 9.2,8.04 9.2,7.6 L9.2,6 L10.8,6 C11.68,6 12.4,5.28 12.4,4.4 L12.4,4.072 C14.744,5.024 16.4,7.32 16.4,10 C16.4,11.664 15.76,13.176 14.72,14.312 Z" id="Shape" fill="#FFFFFF" fill-rule="nonzero"></path>
    </g>
</svg>