<?xml version="1.0" encoding="UTF-8"?>
<svg width="20px" height="20px" viewBox="0 0 20 20" version="1.1" xmlns="http://www.w3.org/2000/svg" xmlns:xlink="http://www.w3.org/1999/xlink">
    <!-- Generator: Sketch 50.2 (55047) - http://www.bohemiancoding.com/sketch -->
    <title>share link</title>
    <desc>Created with Sketch.</desc>
    <defs></defs>
    <g id="Page-1" stroke="none" stroke-width="1" fill="none" fill-rule="evenodd">
        <g id="Artboard-2" fill="#00A657">
            <g id="icon/share-link/on">
                <path d="M0,0 L16,0 C18.209139,-4.05812251e-16 20,1.790861 20,4 L20,20 L0,20 L0,0 Z M14.8939732,8.74888393 L12.0368304,5.89174107 C11.9661455,5.82105619 11.882441,5.78571429 11.7857143,5.78571429 C11.6889876,5.78571429 11.6052831,5.82105619 11.5345982,5.89174107 C11.4639133,5.96242595 11.4285714,6.04613047 11.4285714,6.14285714 L11.4285714,7.57142857 L10.1785714,7.57142857 C7.5260284,7.57142857 5.89844051,8.32104905 5.29575893,9.8203125 C5.09858532,10.3188269 5,10.9382403 5,11.6785714 C5,12.296134 5.23623276,13.1350393 5.70870536,14.1953125 C5.71986613,14.2213543 5.73939718,14.2659967 5.76729911,14.3292411 C5.79520103,14.3924854 5.82031239,14.4482884 5.84263393,14.4966518 C5.86495547,14.5450151 5.88913677,14.5859373 5.91517857,14.6194196 C5.95982165,14.682664 6.01190446,14.7142857 6.07142857,14.7142857 C6.12723242,14.7142857 6.17094478,14.6956847 6.20256696,14.6584821 C6.23418915,14.6212796 6.25,14.5747771 6.25,14.5189732 C6.25,14.4854909 6.24534975,14.4361982 6.23604911,14.3710938 C6.22674847,14.3059893 6.22209821,14.2622769 6.22209821,14.2399554 C6.20349693,13.9869779 6.19419643,13.7581855 6.19419643,13.5535714 C6.19419643,13.1778255 6.22674819,12.8411473 6.29185268,12.5435268 C6.35695717,12.2459063 6.44717204,11.9882823 6.5625,11.7706473 C6.67782796,11.5530123 6.82663599,11.3651422 7.00892857,11.2070312 C7.19122115,11.0489203 7.38746175,10.9196434 7.59765625,10.8191964 C7.80785075,10.7187495 8.05524411,10.6396952 8.33984375,10.5820312 C8.62444339,10.5243673 8.91089886,10.4843751 9.19921875,10.4620536 C9.48753864,10.439732 9.81398627,10.4285714 10.1785714,10.4285714 L11.4285714,10.4285714 L11.4285714,11.8571429 C11.4285714,11.9538695 11.4639133,12.0375741 11.5345982,12.1082589 C11.6052831,12.1789438 11.6889876,12.2142857 11.7857143,12.2142857 C11.882441,12.2142857 11.9661455,12.1789438 12.0368304,12.1082589 L14.8939732,9.25111607 C14.9646581,9.18043119 15,9.09672667 15,9 C15,8.90327333 14.9646581,8.81956881 14.8939732,8.74888393 Z" id="Combined-Shape"></path>
            </g>
        </g>
    </g>
</svg>