<?xml version="1.0" encoding="UTF-8"?>
<svg width="20px" height="20px" viewBox="0 0 20 20" version="1.1" xmlns="http://www.w3.org/2000/svg" xmlns:xlink="http://www.w3.org/1999/xlink">
    <!-- Generator: Sketch 50.2 (55047) - http://www.bohemiancoding.com/sketch -->
    <title>Artboard 2</title>
    <desc>Created with Sketch.</desc>
    <defs></defs>
    <g id="Artboard-2" stroke="none" stroke-width="1" fill="none" fill-rule="evenodd">
        <path d="M10,18 C5.581722,18 2,14.418278 2,10 C2,5.581722 5.581722,2 10,2 C14.418278,2 18,5.581722 18,10 C18,14.418278 14.418278,18 10,18 Z M10.0784615,8.53999996 C11.183031,8.53999996 12.0784615,7.64456946 12.0784615,6.53999996 C12.0784615,5.43543046 11.183031,4.53999996 10.0784615,4.53999996 C8.973892,4.53999996 8.0784615,5.43543046 8.0784615,6.53999996 C8.0784615,7.64456946 8.973892,8.53999996 10.0784615,8.53999996 Z M6,13.9461441 C7,16.6846186 13,16.6846186 14,13.9461441 C14.584368,12.3458672 13,8.92307692 10,8.92307692 C7,8.92307692 5.340756,12.1408213 6,13.9461441 Z" id="Combined-Shape-Copy-4" fill="#00A657"></path>
    </g>
</svg>