<?xml version="1.0" encoding="UTF-8"?>
<svg width="20px" height="20px" viewBox="0 0 20 20" version="1.1" xmlns="http://www.w3.org/2000/svg" xmlns:xlink="http://www.w3.org/1999/xlink">
    <!-- Generator: Sketch 50.2 (55047) - http://www.bohemiancoding.com/sketch -->
    <title>Artboard 2</title>
    <desc>Created with Sketch.</desc>
    <defs></defs>
    <g id="Artboard-2" stroke="none" stroke-width="1" fill="none" fill-rule="evenodd">
        <g id="icon/edit-gray" fill="#CCCCCC">
            <path d="M6,-4.4408921e-16 L6,2 L3,2 C2.44771525,2 2,2.44771525 2,3 L2,17 C2,17.5522847 2.44771525,18 3,18 L15,18 C15.5522847,18 16,17.5522847 16,17 L16,13 L18,13 L18,19 C18,19.5522847 17.5522847,20 17,20 L1,20 C0.44771525,20 6.76353751e-17,19.5522847 0,19 L0,1 C-6.76353751e-17,0.44771525 0.44771525,1.01453063e-16 1,0 L6,0 Z M18.106013,0.301296977 L19.7062953,1.9015793 C20.0968196,2.29210359 20.0968196,2.92526857 19.7062953,3.31579286 L18.7784537,4.2436345 L15.7639578,1.22913861 L16.6917994,0.301296977 C17.0823237,-0.0892273148 17.7154887,-0.0892273148 18.106013,0.301296977 Z M15.090972,1.86558735 L18.1054679,4.88008323 L10.7482,12.2373511 L7.73370411,9.22285522 L15.090972,1.86558735 Z M6.94032312,10.0403294 L9.954819,13.0548253 L5.99514844,14 L6.94032312,10.0403294 Z" id="Combined-Shape"></path>
        </g>
    </g>
</svg>