<?xml version="1.0" encoding="UTF-8"?>
<svg width="20px" height="20px" viewBox="0 0 20 20" version="1.1" xmlns="http://www.w3.org/2000/svg" xmlns:xlink="http://www.w3.org/1999/xlink">
    <!-- Generator: Sketch 50.2 (55047) - http://www.bohemiancoding.com/sketch -->
    <title>pdf</title>
    <desc>Created with Sketch.</desc>
    <defs></defs>
    <g id="Page-1" stroke="none" stroke-width="1" fill="none" fill-rule="evenodd">
        <g id="Artboard-2" fill="#CCCCCC">
            <g id="icon/pdf">
                <path d="M0,0 L13,0 L13,7 L20,7 L20,20 L0,20 L0,0 Z M14,0 L20,6 L14,6 L14,0 Z M8.64941406,17 L9.78320312,17 C10.2519555,17 10.6259752,16.9785158 10.9052734,16.9355469 C11.1845717,16.8925779 11.4150382,16.8242192 11.5966797,16.7304688 C11.9697284,16.5332021 12.2548818,16.2744157 12.4521484,15.9541016 C12.649415,15.6337875 12.7480469,15.2685567 12.7480469,14.8583984 C12.7480469,14.446287 12.6489268,14.0791032 12.4506836,13.7568359 C12.2524404,13.4345687 11.9677753,13.1757822 11.5966797,12.9804688 C11.4208976,12.8886714 11.1928725,12.820801 10.9125977,12.7768555 C10.6323228,12.7329099 10.2939473,12.7109375 9.89746094,12.7109375 L8.64941406,12.7109375 L8.64941406,17 Z M4.40136719,17 L5.9453125,17 L5.9453125,15.734375 L6.42871094,15.734375 C7.01465137,15.734375 7.44238146,15.6176769 7.71191406,15.3842773 C7.98144666,15.1508777 8.11621094,14.7812525 8.11621094,14.2753906 C8.11621094,13.7324192 7.96631009,13.3359387 7.66650391,13.0859375 C7.36669772,12.8359363 6.89258137,12.7109375 6.24414062,12.7109375 L4.40136719,12.7109375 L4.40136719,17 Z M13.3955078,17 L13.3955078,12.7109375 L16.2636719,12.7109375 L16.2636719,13.8740234 L14.9394531,13.8740234 L14.9394531,14.3720703 L16.1376953,14.3720703 L16.1376953,15.4707031 L14.9394531,15.4707031 L14.9394531,17 L13.3955078,17 Z M10.1787109,15.6904297 L10.1787109,14.0292969 L10.2460938,14.0292969 C10.5625016,14.0292969 10.7973625,14.0976556 10.9506836,14.234375 C11.1040047,14.3710944 11.1806641,14.5791002 11.1806641,14.8583984 C11.1806641,15.1435561 11.1005867,15.3530267 10.9404297,15.4868164 C10.7802726,15.6206061 10.5263689,15.6884766 10.1787109,15.6904297 Z M5.95117188,13.9033203 L6.19140625,13.9033203 C6.33398509,13.9033203 6.4453121,13.9350583 6.52539062,13.9985352 C6.60546915,14.062012 6.64550781,14.1503901 6.64550781,14.2636719 C6.64550781,14.3769537 6.6064457,14.4643552 6.52832031,14.5258789 C6.45019492,14.5874027 6.33789136,14.6181641 6.19140625,14.6181641 L5.95117188,14.6181641 L5.95117188,13.9033203 Z" id="Combined-Shape"></path>
            </g>
        </g>
    </g>
</svg>