<?xml version="1.0" encoding="UTF-8"?>
<svg width="20px" height="20px" viewBox="0 0 20 20" version="1.1" xmlns="http://www.w3.org/2000/svg" xmlns:xlink="http://www.w3.org/1999/xlink">
    <!-- Generator: Sketch 50.2 (55047) - http://www.bohemiancoding.com/sketch -->
    <title>Artboard 2</title>
    <desc>Created with Sketch.</desc>
    <defs></defs>
    <g id="Artboard-2" stroke="none" stroke-width="1" fill="none" fill-rule="evenodd">
        <g id="Group-3" transform="translate(2.000000, 2.000000)" fill="#FFFFFF">
            <path d="M11.8,3.30506952 C11.5639964,3.25827015 11.3199815,3.23373063 11.0702352,3.23373063 C10.7130591,3.23373063 10.4277029,3.2839224 10.2,3.37763755 L10.2,1.6 L1.6,1.6 L1.6,14.4 L4.68589531,14.4 C4.67832771,14.5281038 4.67448882,14.6572431 4.67448882,14.7873046 C4.67448882,15.2543394 4.89561239,15.6585712 5.27838979,16 L0,16 L0,0 L11.8,0 L11.8,3.30506952 Z M3.4,4.2 L5,4.2 L5,5.8 L3.4,5.8 L3.4,4.2 Z M6.6,4.2 L8.2,4.2 L8.2,5.8 L6.6,5.8 L6.6,4.2 Z M3.4,7.4 L5,7.4 L5,9 L3.4,9 L3.4,7.4 Z M6.6,7.4 L8.2,7.4 L8.2,9 L6.6,9 L6.6,7.4 Z M3.4,10.6 L5,10.6 L5,12.2 L3.4,12.2 L3.4,10.6 Z M15.3340661,14.0465075 C15.3340661,16.4685141 6.80640428,16.4685141 6.80640428,14.0465075 C6.80640428,11.6245009 8.71538641,9.66107656 11.0702352,9.66107656 C13.425084,9.66107656 15.3340661,11.6245009 15.3340661,14.0465075 Z M11.0702352,8.88583458 C9.99984939,8.88583458 9.13213024,8.01811543 9.13213024,6.94772961 C9.13213024,5.87734379 9.99984939,5.00962464 11.0702352,5.00962464 C12.140621,5.00962464 13.0083402,5.87734379 13.0083402,6.94772961 C13.0083402,8.01811543 12.140621,8.88583458 11.0702352,8.88583458 Z" id="Combined-Shape"></path>
        </g>
    </g>
</svg>